<?xml version="1.0" standalone="no"?><!DOCTYPE svg PUBLIC "-//W3C//DTD SVG 1.1//EN" "http://www.w3.org/Graphics/SVG/1.1/DTD/svg11.dtd"><svg t="1533784195530" class="icon" style="" viewBox="0 0 1024 1024" version="1.1" xmlns="http://www.w3.org/2000/svg" p-id="6438" xmlns:xlink="http://www.w3.org/1999/xlink" width="200" height="200"><defs><style type="text/css"></style></defs><path d="M933.576059 816.721143h-71.856561v-71.852468c0-13.127995-10.606569-23.7581-23.88806-23.7581-13.19758 0-23.906479 10.897188-23.906479 23.777543v71.832002H742.408135c-13.262048 0-24.059975 10.69662-24.059975 23.892153 0 13.285584 10.629081 23.892153 23.826661 23.892153h71.750138v71.765487c0 13.162788 10.592242 23.824615 23.906479 23.824615 13.180184 0 23.88806-10.809183 23.88806-24.071232v-17.20587V864.505449h71.834049c12.879332 0 23.77038-10.708899 23.770379-23.892153 0-13.283538-10.633175-23.892153-23.747867-23.892153z" p-id="6439"></path><path d="M714.45141 864.946494a24.403806 24.403806 0 0 1-5.704932 0.63752c-13.473873-0.107447-24.346501-11.147898-24.246217-24.62177 0.081864-10.729365 7.106862-19.803022 16.766872-23.00597a107.756189 107.756189 0 0 1-0.105401-4.577249c0-32.331359 14.398942-61.295018 37.128619-80.84426-23.725354-136.662543-136.539746-243.389286-276.637528-257.348205l0.206708-26.780947c93.070722-13.296841 165.259858-92.939739 165.995615-189.750645 0.806365-106.640786-85.295642-194.053648-191.93131-194.868199-106.641809-0.805342-194.057741 85.296665-194.8682 191.93131-0.73678 96.809883 70.240761 177.545672 163.093519 192.255699l-0.201591 26.770713C253.218654 487.458047 132.347772 607.705736 119.163495 758.75494c-32.741705 10.615779-56.620555 41.227983-56.894801 77.484745-0.343831 45.292556 36.216853 82.412988 81.509408 82.757843 45.292556 0.342808 82.419128-36.2189 82.761936-81.511456 0.260943-33.997302-20.283975-63.389726-49.706075-76.077699C188.476117 641.155569 283.887141 545.376155 403.510612 532.747533l-0.893347 117.089765c-30.620391 11.754718-52.555983 41.285289-52.822042 76.031651-0.340761 45.281299 36.225039 82.402755 81.517595 82.745562 45.285393 0.344854 82.412988-36.2189 82.755795-81.500199 0.270153-35.522028-22.204721-65.936735-53.741994-77.611635l0.884136-116.316145c118.619608 14.340613 212.150818 110.355387 223.013213 229.66368-33.019021 10.44898-57.146535 41.207517-57.42692 77.669963-0.340761 45.293579 36.222993 82.414011 81.515548 82.755796 18.359137 0.140193 35.376719-5.785773 49.146327-15.899109a107.066481 107.066481 0 0 1-43.007513-42.430368z m-570.231239-3.645016c-13.473873-0.10847-24.348548-11.146874-24.246217-24.628934 0.098237-13.46364 11.145851-24.346501 24.614607-24.239054 13.473873 0.099261 24.349571 11.146874 24.251334 24.611537-0.107447 13.473873-11.145851 24.354688-24.619724 24.256451z m287.529599-110.39325c-13.468756-0.096191-24.349571-11.144828-24.248264-24.608467 0.104377-13.473873 11.146874-24.354688 24.62177-24.247241 13.472849 0.098237 24.345478 11.135618 24.245194 24.619724-0.102331 13.464663-11.145851 24.344454-24.6187 24.235984z m1.674129-358.027209c-74.823126-0.567935-135.234007-61.896722-134.669143-136.718825 0.571005-74.822103 61.909002-135.238101 136.725988-134.668119 74.821079 0.568958 135.237077 61.909002 134.667096 136.720871-0.566912 74.826196-61.901839 135.236054-136.723941 134.666073z" p-id="6440"></path></svg>