<?xml version="1.0" standalone="no"?><!DOCTYPE svg PUBLIC "-//W3C//DTD SVG 1.1//EN" "http://www.w3.org/Graphics/SVG/1.1/DTD/svg11.dtd"><svg t="1533188670952" class="icon" style="" viewBox="0 0 1024 1024" version="1.1" xmlns="http://www.w3.org/2000/svg" p-id="1420" xmlns:xlink="http://www.w3.org/1999/xlink" width="200" height="200"><defs><style type="text/css"></style></defs><path d="M342.646154 695.138462c-1.969231-5.907692-7.876923-11.815385-13.784616-13.784616l-43.323076-11.815384c-7.876923-1.969231-17.723077 1.969231-21.661539 9.846153L189.046154 807.384615c-19.692308 35.446154-7.876923 47.261538 27.569231 27.569231l129.96923-74.830769c7.876923-3.938462 11.815385-13.784615 9.846154-21.661539l-13.784615-43.323076z m338.707692-366.276924c1.969231 5.907692 7.876923 11.815385 13.784616 13.784616l43.323076 11.815384c7.876923 1.969231 17.723077-1.969231 21.661539-9.846153l74.830769-129.969231c19.692308-35.446154 7.876923-47.261538-27.569231-27.569231l-129.96923 74.830769c-7.876923 3.938462-11.815385 13.784615-9.846154 21.661539l13.784615 45.292307z m-417.476923 17.723077c3.938462 7.876923 13.784615 11.815385 21.661539 9.846154l43.323076-11.815384c5.907692-1.969231 11.815385-7.876923 13.784616-13.784616l11.815384-43.323077c1.969231-7.876923-1.969231-17.723077-9.846153-21.661538L216.615385 189.046154c-35.446154-19.692308-47.261538-7.876923-27.569231 27.569231l74.830769 129.96923z m496.246154 330.83077c-3.938462-7.876923-13.784615-11.815385-21.661539-9.846154l-43.323076 11.815384c-5.907692 1.969231-11.815385 7.876923-13.784616 13.784616l-11.815384 45.292307c-1.969231 7.876923 1.969231 17.723077 9.846153 21.661539l129.969231 74.830769c35.446154 19.692308 47.261538 7.876923 27.569231-27.569231l-76.8-129.96923z m198.892308-181.169231l-322.953847-86.646154c-11.815385-1.969231-19.692308-11.815385-21.661538-21.661538L527.753846 64.984615c-9.846154-33.476923-23.630769-33.476923-33.476923 0l-86.646154 322.953847c-1.969231 11.815385-11.815385 19.692308-21.661538 21.661538L64.984615 496.246154c-33.476923 9.846154-33.476923 23.630769 0 33.476923l322.953847 86.646154c11.815385 1.969231 19.692308 11.815385 21.661538 21.661538l86.646154 322.953846c9.846154 33.476923 23.630769 33.476923 33.476923 0l86.646154-322.953846c1.969231-11.815385 11.815385-19.692308 21.661538-21.661538l322.953846-86.646154c31.507692-9.846154 31.507692-25.6-1.96923-33.476923zM512 590.769231c-43.323077 0-78.769231-35.446154-78.769231-78.769231s35.446154-78.769231 78.769231-78.769231 78.769231 35.446154 78.769231 78.769231-35.446154 78.769231-78.769231 78.769231z" p-id="1421"></path></svg>